<svg data-v-423bf9ae="" xmlns="http://www.w3.org/2000/svg" viewBox="0 0 344.35499475109145 60" class="font"><!----><!----><!----><g data-v-423bf9ae="" id="aa5233fd-b46e-4292-9273-3ce1d29ebf77" fill="white" transform="matrix(5.819592391658763,0,0,5.819592391658763,-3.3171630206762472,-16.23666207389096)"><path d="M6.65 10.85L6.65 10.85Q6.65 10.82 6.71 10.82L6.71 10.82L6.71 10.82Q6.75 10.82 6.78 10.84L6.78 10.84L6.78 10.84Q6.82 10.85 6.82 10.88L6.82 10.88L6.82 10.88Q6.69 11.76 6.69 12.73L6.69 12.73L6.69 12.73Q6.69 12.84 6.64 12.89L6.64 12.89L6.64 12.89Q6.59 12.94 6.47 12.94L6.47 12.94L0.60 12.94L0.60 12.94Q0.57 12.94 0.57 12.85L0.57 12.85L0.57 12.85Q0.57 12.77 0.60 12.77L0.60 12.77L0.60 12.77Q1.13 12.77 1.38 12.70L1.38 12.70L1.38 12.70Q1.62 12.63 1.72 12.43L1.72 12.43L1.72 12.43Q1.81 12.22 1.81 11.80L1.81 11.80L1.81 5.32L1.81 5.32Q1.81 4.90 1.72 4.70L1.72 4.70L1.72 4.70Q1.62 4.51 1.38 4.43L1.38 4.43L1.38 4.43Q1.13 4.35 0.60 4.35L0.60 4.35L0.60 4.35Q0.57 4.35 0.57 4.27L0.57 4.27L0.57 4.27Q0.57 4.19 0.60 4.19L0.60 4.19L6.23 4.19L6.23 4.19Q6.36 4.19 6.36 4.31L6.36 4.31L6.38 6.03L6.38 6.03Q6.38 6.08 6.31 6.08L6.31 6.08L6.31 6.08Q6.24 6.09 6.23 6.05L6.23 6.05L6.23 6.05Q6.19 5.31 5.78 4.89L5.78 4.89L5.78 4.89Q5.38 4.48 4.70 4.48L4.70 4.48L3.85 4.48L3.85 4.48Q3.36 4.48 3.13 4.56L3.13 4.56L3.13 4.56Q2.90 4.63 2.81 4.82L2.81 4.82L2.81 4.82Q2.72 5.01 2.72 5.39L2.72 5.39L2.72 8.23L4.42 8.23L4.42 8.23Q5.10 8.23 5.38 8.01L5.38 8.01L5.38 8.01Q5.67 7.78 5.67 7.25L5.67 7.25L5.67 7.25Q5.67 7.22 5.75 7.22L5.75 7.22L5.75 7.22Q5.84 7.22 5.84 7.25L5.84 7.25L5.82 8.39L5.82 8.39Q5.82 8.79 5.84 9.00L5.84 9.00L5.85 9.67L5.85 9.67Q5.85 9.70 5.77 9.70L5.77 9.70L5.77 9.70Q5.68 9.70 5.68 9.67L5.68 9.67L5.68 9.67Q5.68 9.06 5.38 8.79L5.38 8.79L5.38 8.79Q5.08 8.53 4.38 8.53L4.38 8.53L2.72 8.53L2.72 11.75L2.72 11.75Q2.72 12.14 2.80 12.32L2.80 12.32L2.80 12.32Q2.88 12.50 3.11 12.57L3.11 12.57L3.11 12.57Q3.33 12.64 3.81 12.64L3.81 12.64L4.93 12.64L4.93 12.64Q5.60 12.64 6.05 12.17L6.05 12.17L6.05 12.17Q6.50 11.69 6.65 10.85L6.65 10.85ZM13.50 12.77L13.50 12.77Q13.52 12.77 13.52 12.85L13.52 12.85L13.52 12.85Q13.52 12.94 13.50 12.94L13.50 12.94L13.05 12.92L13.05 12.92Q12.89 12.91 12.60 12.91L12.60 12.91L11.70 12.92L11.70 12.92Q11.49 12.94 11.14 12.94L11.14 12.94L11.14 12.94Q11.10 12.94 11.10 12.85L11.10 12.85L11.10 12.85Q11.10 12.77 11.14 12.77L11.14 12.77L11.14 12.77Q11.40 12.77 11.50 12.73L11.50 12.73L11.50 12.73Q11.61 12.70 11.61 12.60L11.61 12.60L11.61 12.60Q11.61 12.47 11.44 12.22L11.44 12.22L10.37 10.61L9.53 11.82L9.53 11.82Q9.25 12.24 9.25 12.43L9.25 12.43L9.25 12.43Q9.25 12.60 9.44 12.68L9.44 12.68L9.44 12.68Q9.63 12.77 10.05 12.77L10.05 12.77L10.05 12.77Q10.09 12.77 10.09 12.85L10.09 12.85L10.09 12.85Q10.09 12.94 10.05 12.94L10.05 12.94L10.05 12.94Q9.67 12.94 9.49 12.92L9.49 12.92L8.65 12.91L8.15 12.92L8.15 12.92Q8.01 12.94 7.70 12.94L7.70 12.94L7.70 12.94Q7.67 12.94 7.67 12.85L7.67 12.85L7.67 12.85Q7.67 12.77 7.70 12.77L7.70 12.77L7.70 12.77Q8.06 12.77 8.49 12.50L8.49 12.50L8.49 12.50Q8.92 12.24 9.28 11.73L9.28 11.73L10.23 10.40L9.10 8.69L9.10 8.69Q8.76 8.18 8.40 7.94L8.40 7.94L8.40 7.94Q8.04 7.70 7.74 7.70L7.74 7.70L7.74 7.70Q7.71 7.70 7.71 7.62L7.71 7.62L7.71 7.62Q7.71 7.53 7.74 7.53L7.74 7.53L7.74 7.53Q8.04 7.53 8.18 7.55L8.18 7.55L8.61 7.56L9.51 7.55L9.51 7.55Q9.70 7.53 10.05 7.53L10.05 7.53L10.05 7.53Q10.08 7.53 10.08 7.62L10.08 7.62L10.08 7.62Q10.08 7.70 10.05 7.70L10.05 7.70L10.05 7.70Q9.81 7.70 9.70 7.73L9.70 7.73L9.70 7.73Q9.59 7.77 9.59 7.87L9.59 7.87L9.59 7.87Q9.59 7.97 9.77 8.25L9.77 8.25L10.74 9.70L11.45 8.65L11.45 8.65Q11.75 8.22 11.75 8.02L11.75 8.02L11.75 8.02Q11.75 7.85 11.56 7.78L11.56 7.78L11.56 7.78Q11.37 7.70 10.93 7.70L10.93 7.70L10.93 7.70Q10.91 7.70 10.91 7.62L10.91 7.62L10.91 7.62Q10.91 7.53 10.93 7.53L10.93 7.53L10.93 7.53Q11.31 7.53 11.51 7.55L11.51 7.55L12.35 7.56L12.85 7.55L12.85 7.55Q12.99 7.53 13.30 7.53L13.30 7.53L13.30 7.53Q13.33 7.53 13.33 7.62L13.33 7.62L13.33 7.62Q13.33 7.70 13.30 7.70L13.30 7.70L13.30 7.70Q12.92 7.70 12.51 7.96L12.51 7.96L12.51 7.96Q12.10 8.22 11.72 8.74L11.72 8.74L10.86 9.90L12.11 11.77L12.11 11.77Q12.46 12.31 12.83 12.54L12.83 12.54L12.83 12.54Q13.20 12.77 13.50 12.77L13.50 12.77ZM16.90 13.10L16.90 13.10Q15.99 13.10 15.37 12.71L15.37 12.71L15.37 12.71Q14.76 12.31 14.46 11.68L14.46 11.68L14.46 11.68Q14.17 11.05 14.17 10.35L14.17 10.35L14.17 10.35Q14.17 9.45 14.62 8.79L14.62 8.79L14.62 8.79Q15.06 8.12 15.77 7.76L15.77 7.76L15.77 7.76Q16.48 7.41 17.22 7.41L17.22 7.41L17.22 7.41Q17.84 7.41 18.35 7.65L18.35 7.65L18.35 7.65Q18.86 7.90 18.86 8.26L18.86 8.26L18.86 8.26Q18.86 8.44 18.73 8.57L18.73 8.57L18.73 8.57Q18.59 8.71 18.37 8.71L18.37 8.71L18.37 8.71Q17.99 8.71 17.75 8.25L17.75 8.25L17.75 8.25Q17.57 7.97 17.36 7.83L17.36 7.83L17.36 7.83Q17.15 7.69 16.76 7.69L16.76 7.69L16.76 7.69Q15.97 7.69 15.53 8.29L15.53 8.29L15.53 8.29Q15.09 8.90 15.09 9.93L15.09 9.93L15.09 9.93Q15.09 11.10 15.68 11.86L15.68 11.86L15.68 11.86Q16.27 12.61 17.44 12.61L17.44 12.61L17.44 12.61Q18.30 12.61 18.87 12.15L18.87 12.15L18.89 12.15L18.89 12.15Q18.93 12.15 18.96 12.19L18.96 12.19L18.96 12.19Q19.00 12.24 18.97 12.26L18.97 12.26L18.97 12.26Q18.48 12.70 17.98 12.90L17.98 12.90L17.98 12.90Q17.49 13.10 16.90 13.10L16.90 13.10ZM24.50 12.15L24.51 12.15L24.51 12.15Q24.56 12.15 24.59 12.20L24.59 12.20L24.59 12.20Q24.63 12.25 24.60 12.29L24.60 12.29L24.60 12.29Q23.65 13.10 22.55 13.10L22.55 13.10L22.55 13.10Q21.73 13.10 21.13 12.73L21.13 12.73L21.13 12.73Q20.52 12.35 20.22 11.74L20.22 11.74L20.22 11.74Q19.92 11.13 19.92 10.42L19.92 10.42L19.92 10.42Q19.92 9.58 20.32 8.89L20.32 8.89L20.32 8.89Q20.72 8.20 21.41 7.80L21.41 7.80L21.41 7.80Q22.09 7.41 22.93 7.41L22.93 7.41L22.93 7.41Q23.69 7.41 24.11 7.78L24.11 7.78L24.11 7.78Q24.53 8.15 24.53 8.79L24.53 8.79L24.53 8.79Q24.53 8.96 24.49 9.04L24.49 9.04L24.49 9.04Q24.46 9.11 24.36 9.11L24.36 9.11L20.92 9.14L20.92 9.14Q20.85 9.52 20.85 9.87L20.85 9.87L20.85 9.87Q20.85 11.09 21.43 11.85L21.43 11.85L21.43 11.85Q22.02 12.61 23.06 12.61L23.06 12.61L23.06 12.61Q23.86 12.61 24.50 12.15L24.50 12.15ZM22.46 7.69L22.46 7.69Q21.88 7.69 21.50 8.02L21.50 8.02L21.50 8.02Q21.11 8.34 20.96 8.95L20.96 8.95L23.56 8.89L23.56 8.89Q23.56 8.32 23.26 8.00L23.26 8.00L23.26 8.00Q22.96 7.69 22.46 7.69L22.46 7.69ZM25.69 12.94L25.69 12.94Q25.65 12.94 25.65 12.85L25.65 12.85L25.65 12.85Q25.65 12.77 25.69 12.77L25.69 12.77L25.69 12.77Q26.07 12.77 26.25 12.69L26.25 12.69L26.25 12.69Q26.43 12.61 26.50 12.41L26.50 12.41L26.50 12.41Q26.57 12.21 26.57 11.80L26.57 11.80L26.57 4.56L26.57 4.56Q26.57 4.06 26.47 3.84L26.47 3.84L26.47 3.84Q26.38 3.61 26.12 3.61L26.12 3.61L26.12 3.61Q25.91 3.61 25.48 3.81L25.48 3.81L25.45 3.81L25.45 3.81Q25.41 3.81 25.39 3.74L25.39 3.74L25.39 3.74Q25.37 3.67 25.41 3.65L25.41 3.65L27.20 2.80L27.20 2.80Q27.23 2.79 27.27 2.79L27.27 2.79L27.27 2.79Q27.30 2.79 27.35 2.82L27.35 2.82L27.35 2.82Q27.40 2.86 27.40 2.90L27.40 2.90L27.40 11.80L27.40 11.80Q27.40 12.21 27.46 12.40L27.46 12.40L27.46 12.40Q27.52 12.60 27.71 12.68L27.71 12.68L27.71 12.68Q27.89 12.77 28.27 12.77L28.27 12.77L28.27 12.77Q28.31 12.77 28.31 12.85L28.31 12.85L28.31 12.85Q28.31 12.94 28.27 12.94L28.27 12.94L28.27 12.94Q27.96 12.94 27.76 12.92L27.76 12.92L26.98 12.91L26.22 12.92L26.22 12.92Q26.03 12.94 25.69 12.94L25.69 12.94ZM29.30 12.94L29.30 12.94Q29.26 12.94 29.26 12.85L29.26 12.85L29.26 12.85Q29.26 12.77 29.30 12.77L29.30 12.77L29.30 12.77Q29.68 12.77 29.86 12.69L29.86 12.69L29.86 12.69Q30.04 12.61 30.11 12.41L30.11 12.41L30.11 12.41Q30.18 12.21 30.18 11.80L30.18 11.80L30.18 4.56L30.18 4.56Q30.18 4.06 30.09 3.84L30.09 3.84L30.09 3.84Q29.99 3.61 29.74 3.61L29.74 3.61L29.74 3.61Q29.53 3.61 29.09 3.81L29.09 3.81L29.06 3.81L29.06 3.81Q29.02 3.81 29.00 3.74L29.00 3.74L29.00 3.74Q28.98 3.67 29.02 3.65L29.02 3.65L30.81 2.80L30.81 2.80Q30.84 2.79 30.88 2.79L30.88 2.79L30.88 2.79Q30.91 2.79 30.96 2.82L30.96 2.82L30.96 2.82Q31.01 2.86 31.01 2.90L31.01 2.90L31.01 11.80L31.01 11.80Q31.01 12.21 31.07 12.40L31.07 12.40L31.07 12.40Q31.14 12.60 31.32 12.68L31.32 12.68L31.32 12.68Q31.50 12.77 31.88 12.77L31.88 12.77L31.88 12.77Q31.92 12.77 31.92 12.85L31.92 12.85L31.92 12.85Q31.92 12.94 31.88 12.94L31.88 12.94L31.88 12.94Q31.57 12.94 31.37 12.92L31.37 12.92L30.59 12.91L29.83 12.92L29.83 12.92Q29.64 12.94 29.30 12.94L29.30 12.94ZM37.44 12.15L37.45 12.15L37.45 12.15Q37.49 12.15 37.53 12.20L37.53 12.20L37.53 12.20Q37.56 12.25 37.53 12.29L37.53 12.29L37.53 12.29Q36.58 13.10 35.49 13.10L35.49 13.10L35.49 13.10Q34.66 13.10 34.06 12.73L34.06 12.73L34.06 12.73Q33.46 12.35 33.16 11.74L33.16 11.74L33.16 11.74Q32.86 11.13 32.86 10.42L32.86 10.42L32.86 10.42Q32.86 9.58 33.26 8.89L33.26 8.89L33.26 8.89Q33.66 8.20 34.34 7.80L34.34 7.80L34.34 7.80Q35.03 7.41 35.87 7.41L35.87 7.41L35.87 7.41Q36.62 7.41 37.04 7.78L37.04 7.78L37.04 7.78Q37.46 8.15 37.46 8.79L37.46 8.79L37.46 8.79Q37.46 8.96 37.43 9.04L37.43 9.04L37.43 9.04Q37.39 9.11 37.30 9.11L37.30 9.11L33.85 9.14L33.85 9.14Q33.78 9.52 33.78 9.87L33.78 9.87L33.78 9.87Q33.78 11.09 34.37 11.85L34.37 11.85L34.37 11.85Q34.96 12.61 35.99 12.61L35.99 12.61L35.99 12.61Q36.79 12.61 37.44 12.15L37.44 12.15ZM35.39 7.69L35.39 7.69Q34.82 7.69 34.43 8.02L34.43 8.02L34.43 8.02Q34.05 8.34 33.89 8.95L33.89 8.95L36.50 8.89L36.50 8.89Q36.50 8.32 36.20 8.00L36.20 8.00L36.20 8.00Q35.90 7.69 35.39 7.69L35.39 7.69ZM45.00 12.77L45.00 12.77Q45.04 12.77 45.04 12.85L45.04 12.85L45.04 12.85Q45.04 12.94 45.00 12.94L45.00 12.94L45.00 12.94Q44.67 12.94 44.49 12.92L44.49 12.92L43.74 12.91L42.97 12.92L42.97 12.92Q42.78 12.94 42.46 12.94L42.46 12.94L42.46 12.94Q42.42 12.94 42.42 12.85L42.42 12.85L42.42 12.85Q42.42 12.77 42.46 12.77L42.46 12.77L42.46 12.77Q42.84 12.77 43.02 12.69L43.02 12.69L43.02 12.69Q43.20 12.61 43.27 12.42L43.27 12.42L43.27 12.42Q43.33 12.22 43.33 11.80L43.33 11.80L43.33 9.53L43.33 9.53Q43.33 8.71 43.02 8.32L43.02 8.32L43.02 8.32Q42.70 7.92 42.04 7.92L42.04 7.92L42.04 7.92Q41.61 7.92 41.17 8.16L41.17 8.16L41.17 8.16Q40.73 8.39 40.36 8.79L40.36 8.79L40.36 11.80L40.36 11.80Q40.36 12.22 40.43 12.42L40.43 12.42L40.43 12.42Q40.49 12.61 40.67 12.69L40.67 12.69L40.67 12.69Q40.85 12.77 41.23 12.77L41.23 12.77L41.23 12.77Q41.27 12.77 41.27 12.85L41.27 12.85L41.27 12.85Q41.27 12.94 41.23 12.94L41.23 12.94L41.23 12.94Q40.91 12.94 40.73 12.92L40.73 12.92L39.97 12.91L39.20 12.92L39.20 12.92Q39.02 12.94 38.70 12.94L38.70 12.94L38.70 12.94Q38.65 12.94 38.65 12.85L38.65 12.85L38.65 12.85Q38.65 12.77 38.70 12.77L38.70 12.77L38.70 12.77Q39.07 12.77 39.26 12.69L39.26 12.69L39.26 12.69Q39.44 12.61 39.50 12.42L39.50 12.42L39.50 12.42Q39.56 12.22 39.56 11.80L39.56 11.80L39.56 9.03L39.56 9.03Q39.56 8.55 39.45 8.34L39.45 8.34L39.45 8.34Q39.34 8.13 39.07 8.13L39.07 8.13L39.07 8.13Q38.85 8.13 38.32 8.34L38.32 8.34L38.29 8.34L38.29 8.34Q38.23 8.34 38.21 8.28L38.21 8.28L38.21 8.28Q38.19 8.22 38.25 8.19L38.25 8.19L39.87 7.42L39.87 7.42Q39.90 7.41 39.96 7.41L39.96 7.41L39.96 7.41Q40.08 7.41 40.22 7.73L40.22 7.73L40.22 7.73Q40.36 8.05 40.36 8.55L40.36 8.55L40.36 8.55Q40.89 7.94 41.42 7.64L41.42 7.64L41.42 7.64Q41.94 7.35 42.50 7.35L42.50 7.35L42.50 7.35Q43.29 7.35 43.71 7.78L43.71 7.78L43.71 7.78Q44.13 8.22 44.13 9.06L44.13 9.06L44.13 11.80L44.13 11.80Q44.13 12.22 44.19 12.42L44.19 12.42L44.19 12.42Q44.25 12.61 44.44 12.69L44.44 12.69L44.44 12.69Q44.62 12.77 45.00 12.77L45.00 12.77ZM49.63 12.22L49.66 12.21L49.66 12.21Q49.71 12.21 49.74 12.27L49.74 12.27L49.74 12.27Q49.77 12.33 49.73 12.36L49.73 12.36L49.73 12.36Q49.21 12.77 48.80 12.94L48.80 12.94L48.80 12.94Q48.38 13.10 47.94 13.10L47.94 13.10L47.94 13.10Q47.35 13.10 46.97 12.84L46.97 12.84L46.97 12.84Q46.59 12.57 46.59 11.96L46.59 11.96L46.59 8.67L46.59 8.67Q46.59 8.30 46.54 8.15L46.54 8.15L46.54 8.15Q46.49 7.99 46.35 7.94L46.35 7.94L46.35 7.94Q46.21 7.90 45.88 7.90L45.88 7.90L45.88 7.90Q45.82 7.90 45.82 7.80L45.82 7.80L45.82 7.80Q45.82 7.71 45.88 7.71L45.88 7.71L45.88 7.71Q46.44 7.70 46.79 7.41L46.79 7.41L46.79 7.41Q47.14 7.13 47.19 6.65L47.19 6.65L47.19 6.65Q47.19 6.61 47.31 6.61L47.31 6.61L47.31 6.61Q47.40 6.61 47.40 6.65L47.40 6.65L47.40 7.69L47.40 7.69Q48.10 7.67 49.35 7.55L49.35 7.55L49.35 7.55Q49.38 7.55 49.41 7.65L49.41 7.65L49.41 7.65Q49.45 7.76 49.45 7.88L49.45 7.88L49.45 7.88Q49.45 7.99 49.40 8.11L49.40 8.11L49.40 8.11Q49.35 8.23 49.29 8.22L49.29 8.22L49.29 8.22Q48.52 8.02 47.40 7.99L47.40 7.99L47.40 11.48L47.40 11.48Q47.40 12.05 47.69 12.33L47.69 12.33L47.69 12.33Q47.98 12.61 48.51 12.61L48.51 12.61L48.51 12.61Q49.15 12.61 49.63 12.22L49.63 12.22ZM50.78 12.94L50.78 12.94Q50.75 12.94 50.75 12.85L50.75 12.85L50.75 12.85Q50.75 12.77 50.78 12.77L50.78 12.77L50.78 12.77Q51.16 12.77 51.34 12.69L51.34 12.69L51.34 12.69Q51.53 12.61 51.60 12.41L51.60 12.41L51.60 12.41Q51.67 12.21 51.67 11.80L51.67 11.80L51.67 9.18L51.67 9.18Q51.67 8.68 51.57 8.46L51.57 8.46L51.57 8.46Q51.46 8.23 51.21 8.23L51.21 8.23L51.21 8.23Q50.96 8.23 50.58 8.43L50.58 8.43L50.57 8.43L50.57 8.43Q50.51 8.43 50.48 8.36L50.48 8.36L50.48 8.36Q50.46 8.29 50.50 8.26L50.50 8.26L52.32 7.42L52.37 7.41L52.37 7.41Q52.40 7.41 52.44 7.44L52.44 7.44L52.44 7.44Q52.49 7.48 52.49 7.52L52.49 7.52L52.49 7.52Q52.49 7.62 52.47 8.08L52.47 8.08L52.47 8.08Q52.46 8.54 52.46 9.17L52.46 9.17L52.46 11.80L52.46 11.80Q52.46 12.22 52.53 12.42L52.53 12.42L52.53 12.42Q52.60 12.61 52.78 12.69L52.78 12.69L52.78 12.69Q52.96 12.77 53.34 12.77L53.34 12.77L53.34 12.77Q53.38 12.77 53.38 12.85L53.38 12.85L53.38 12.85Q53.38 12.94 53.34 12.94L53.34 12.94L53.34 12.94Q53.02 12.94 52.82 12.92L52.82 12.92L52.07 12.91L51.31 12.92L51.31 12.92Q51.11 12.94 50.78 12.94L50.78 12.94ZM51.95 5.77L51.95 5.77Q51.66 5.77 51.50 5.61L51.50 5.61L51.50 5.61Q51.34 5.46 51.34 5.18L51.34 5.18L51.34 5.18Q51.34 4.90 51.50 4.75L51.50 4.75L51.50 4.75Q51.66 4.59 51.95 4.59L51.95 4.59L51.95 4.59Q52.23 4.59 52.39 4.75L52.39 4.75L52.39 4.75Q52.54 4.90 52.54 5.18L52.54 5.18L52.54 5.18Q52.54 5.46 52.39 5.61L52.39 5.61L52.39 5.61Q52.23 5.77 51.95 5.77L51.95 5.77ZM59.64 12.18L59.67 12.18L59.67 12.18Q59.72 12.18 59.74 12.24L59.74 12.24L59.74 12.24Q59.75 12.31 59.70 12.33L59.70 12.33L58.25 13.02L58.25 13.02Q58.20 13.05 58.14 13.05L58.14 13.05L58.14 13.05Q57.96 13.05 57.82 12.81L57.82 12.81L57.82 12.81Q57.68 12.57 57.64 12.15L57.64 12.15L56.77 12.61L56.77 12.61Q56.34 12.84 56.06 12.94L56.06 12.94L56.06 12.94Q55.78 13.03 55.51 13.03L55.51 13.03L55.51 13.03Q55.08 13.03 54.85 12.80L54.85 12.80L54.85 12.80Q54.61 12.57 54.61 12.22L54.61 12.22L54.61 12.22Q54.61 11.84 54.90 11.61L54.90 11.61L54.90 11.61Q55.19 11.38 55.93 11.13L55.93 11.13L57.62 10.53L57.62 9.37L57.62 9.37Q57.62 8.44 57.39 8.07L57.39 8.07L57.39 8.07Q57.15 7.70 56.73 7.70L56.73 7.70L56.73 7.70Q56.25 7.70 55.99 8.04L55.99 8.04L55.99 8.04Q55.72 8.37 55.66 8.85L55.66 8.85L55.66 8.85Q55.61 9.38 55.15 9.38L55.15 9.38L55.15 9.38Q54.92 9.38 54.80 9.27L54.80 9.27L54.80 9.27Q54.67 9.16 54.67 8.96L54.67 8.96L54.67 8.96Q54.67 8.64 55.09 8.27L55.09 8.27L55.09 8.27Q55.51 7.91 56.11 7.66L56.11 7.66L56.11 7.66Q56.70 7.41 57.18 7.41L57.18 7.41L57.18 7.41Q57.74 7.41 58.07 7.79L58.07 7.79L58.07 7.79Q58.41 8.18 58.41 8.95L58.41 8.95L58.41 11.42L58.41 11.42Q58.41 11.91 58.53 12.14L58.53 12.14L58.53 12.14Q58.66 12.36 58.95 12.36L58.95 12.36L58.95 12.36Q59.22 12.36 59.64 12.18L59.64 12.18ZM56.77 12.39L57.62 11.96L57.62 11.87L57.62 10.70L56.18 11.24L56.18 11.24Q55.86 11.37 55.73 11.52L55.73 11.52L55.73 11.52Q55.59 11.68 55.59 11.91L55.59 11.91L55.59 11.91Q55.59 12.21 55.76 12.37L55.76 12.37L55.76 12.37Q55.93 12.53 56.20 12.53L56.20 12.53L56.20 12.53Q56.46 12.53 56.77 12.39L56.77 12.39Z"></path></g><!----><!----></svg>